<svg xmlns="http://www.w3.org/2000/svg" viewBox="0 0 32 32" fill="none">
  <!-- Coffee cup body -->
  <path d="M6 10h16v14a4 4 0 01-4 4h-8a4 4 0 01-4-4V10z" fill="#2c1810"/>
  <!-- Coffee liquid -->
  <path d="M7 12h14v10a3 3 0 01-3 3H10a3 3 0 01-3-3V12z" fill="#c4956a"/>
  <!-- Handle -->
  <path d="M22 12h2a3 3 0 010 6h-2" stroke="#2c1810" stroke-width="2.5" stroke-linecap="round" fill="none"/>
  <!-- Steam wisps -->
  <path d="M10 6c0-2 2-2 2-4" stroke="#2c1810" stroke-width="1.5" stroke-linecap="round" fill="none" opacity="0.6"/>
  <path d="M14 7c0-2 2-2 2-4" stroke="#2c1810" stroke-width="1.5" stroke-linecap="round" fill="none" opacity="0.6"/>
  <path d="M18 6c0-2 2-2 2-4" stroke="#2c1810" stroke-width="1.5" stroke-linecap="round" fill="none" opacity="0.6"/>
</svg>
